<?xml version="1.0" standalone="no"?>
<!DOCTYPE svg PUBLIC "-//W3C//DTD SVG 20010904//EN"
 "http://www.w3.org/TR/2001/REC-SVG-20010904/DTD/svg10.dtd">
<svg version="1.0" xmlns="http://www.w3.org/2000/svg"
 width="413.000000pt" height="135.000000pt" viewBox="0 0 413.000000 135.000000"
 preserveAspectRatio="xMidYMid meet" fill='white'>

<g transform="translate(0.000000,135.000000) scale(0.100000,-0.100000)" stroke="none">
<path d="M1438 1074 l3 -235 32 6 c74 15 68 -5 65 213 l-3 197 -50 27 -50 27
3 -235z"/>
<path d="M799 1194 c-172 -53 -283 -237 -238 -397 10 -37 11 -38 32 -23 88 64
216 106 320 106 64 0 66 1 63 25 -3 26 -12 40 -25 40 -8 0 -41 31 -41 39 0 2
12 6 27 8 21 2 27 9 28 31 0 15 -4 27 -10 27 -7 0 -11 16 -11 35 1 37 5 42 23
24 17 -17 83 0 85 22 0 11 1 24 2 31 1 17 -99 47 -159 47 -27 0 -71 -7 -96
-15z"/>
<path d="M1126 1097 c-15 -5 -25 -14 -23 -21 7 -18 -12 -58 -23 -51 -6 4 -17
1 -26 -5 -11 -10 -12 -16 -3 -27 9 -11 8 -17 -6 -27 -18 -13 -18 -14 3 -25 13
-7 19 -17 16 -26 -4 -10 5 -20 29 -30 41 -17 49 -26 37 -44 -6 -10 -43 -15
-131 -18 -68 -2 -153 -11 -189 -19 -88 -22 -212 -81 -285 -137 -61 -46 -135
-117 -122 -117 4 0 47 20 95 44 103 51 210 89 336 119 83 20 119 21 426 22
236 0 365 5 435 15 100 14 100 14 50 21 -27 4 -97 7 -155 8 -58 0 -176 11
-263 23 -158 23 -158 23 -155 48 3 22 9 25 46 28 36 3 42 6 42 26 0 13 9 31
20 41 29 26 25 60 -14 103 -39 43 -97 63 -140 49z"/>
<path d="M1610 718 c-41 -5 -174 -9 -295 -9 -294 0 -440 -18 -613 -76 -74 -25
-234 -92 -220 -93 3 0 48 11 100 25 148 39 268 55 497 65 249 11 340 21 509
56 143 29 187 43 132 42 -19 0 -69 -5 -110 -10z"/>
<path d="M1867 583 c-37 -16 -37 -16 -15 -27 17 -8 24 -22 26 -50 5 -59 -1
-66 -42 -54 -45 14 -84 -2 -130 -53 -65 -71 -72 -165 -16 -221 41 -41 72 -37
129 17 26 25 51 45 55 45 3 0 6 -21 6 -46 0 -40 2 -45 18 -39 9 4 31 12 47 18
l30 11 -25 6 -25 6 0 202 c0 129 -4 202 -10 201 -5 -1 -27 -8 -48 -16z m-19
-163 c26 -16 32 -26 32 -52 0 -54 -19 -106 -52 -143 -61 -70 -128 -28 -128 80
0 50 10 77 43 113 25 27 62 28 105 2z"/>
<path d="M2325 582 c-36 -17 -38 -19 -17 -24 22 -6 22 -8 22 -186 0 -175 -1
-180 -22 -195 -22 -15 -20 -16 47 -16 69 -1 70 0 47 17 -23 18 -23 19 -20 220
2 130 -1 202 -7 202 -5 0 -28 -9 -50 -18z"/>
<path d="M115 399 c-38 -100 -80 -192 -92 -206 -13 -13 -23 -26 -23 -29 0 -2
30 -4 68 -4 60 0 65 2 42 13 -29 14 -37 57 -21 101 11 26 12 27 82 24 l72 -3
19 -55 c10 -30 16 -60 13 -67 -3 -10 11 -13 52 -13 l56 0 -25 23 c-17 15 -44
78 -86 201 -34 97 -62 182 -62 187 0 5 -6 9 -12 9 -7 0 -44 -80 -83 -181z m90
11 c14 -40 25 -77 25 -82 0 -4 -27 -8 -60 -8 -33 0 -60 3 -60 8 0 13 62 163
66 159 2 -2 15 -37 29 -77z"/>
<path d="M2759 550 c-101 -53 -156 -187 -115 -283 17 -41 74 -91 121 -107 99
-33 228 32 272 137 16 39 17 121 2 160 -14 38 -57 83 -96 99 -47 20 -141 17
-184 -6z m154 -37 c51 -36 80 -92 85 -165 5 -69 -9 -109 -51 -144 -27 -23 -38
-26 -89 -22 -65 5 -117 39 -153 99 -29 49 -28 166 1 206 50 68 133 78 207 26z"/>
<path d="M3698 538 c-23 -8 -27 -16 -30 -51 -2 -31 -9 -44 -25 -53 -25 -12
-20 -24 9 -24 16 0 18 -10 18 -125 0 -99 3 -127 14 -131 17 -6 67 18 87 42 13
16 12 16 -8 6 -50 -27 -53 -20 -53 98 l0 110 35 0 c19 0 35 5 35 10 0 6 -10
10 -23 10 -13 0 -28 5 -35 12 -15 15 -16 70 0 86 17 17 7 21 -24 10z"/>
<path d="M745 440 c-30 -14 -34 -19 -19 -19 29 -1 34 -18 34 -122 0 -82 -2
-92 -25 -114 l-24 -25 82 1 c71 0 78 2 52 11 -39 14 -45 24 -45 81 0 97 65
191 105 151 8 -9 15 -22 15 -30 0 -8 5 -14 10 -14 16 0 12 90 -4 96 -23 9 -73
-23 -98 -63 l-23 -38 -3 53 c-2 28 -6 52 -10 51 -4 0 -25 -9 -47 -19z"/>
<path d="M1053 443 c-66 -37 -103 -121 -83 -190 12 -43 25 -62 60 -86 43 -30
102 -15 163 41 39 37 33 48 -9 15 -72 -54 -151 -27 -175 60 -17 64 -12 67 101
67 100 0 101 0 95 23 -24 78 -85 106 -152 70z m82 -28 c45 -44 34 -55 -50 -55
-61 0 -75 3 -75 15 0 25 47 65 75 65 14 0 37 -11 50 -25z"/>
<path d="M1313 441 c-59 -37 -55 -84 10 -126 65 -43 87 -66 87 -95 0 -33 -17
-50 -50 -50 -34 0 -66 24 -74 55 -10 39 -26 30 -26 -15 0 -47 11 -55 82 -55
60 0 108 40 108 92 0 28 -7 38 -47 66 -87 60 -97 71 -89 100 5 21 12 27 35 27
30 0 61 -27 61 -53 0 -9 5 -17 10 -17 6 0 10 17 10 39 0 32 -4 40 -22 45 -39
10 -62 7 -95 -13z"/>
<path d="M2081 443 c-41 -21 -78 -75 -87 -130 -12 -77 50 -163 118 -163 31 0
113 52 128 81 11 19 8 19 -25 -7 -72 -54 -151 -29 -177 57 -19 64 -12 69 102
69 100 0 101 0 95 23 -24 78 -82 105 -154 70z m77 -20 c11 -10 23 -28 27 -40
6 -22 4 -23 -69 -23 -85 0 -96 11 -51 55 28 29 65 32 93 8z"/>
<path d="M3190 446 c-24 -14 -24 -14 16 -9 36 5 43 2 62 -22 38 -48 31 -55
-54 -55 -57 0 -75 3 -71 13 22 53 22 53 2 37 -48 -39 -60 -145 -22 -201 47
-70 118 -75 188 -12 46 41 53 67 8 29 -17 -14 -41 -29 -54 -32 -61 -15 -125
45 -125 117 l0 39 101 0 101 0 -7 28 c-15 62 -92 98 -145 68z"/>
<path d="M3450 442 c-28 -13 -36 -24 -38 -50 -4 -40 6 -53 74 -98 61 -40 73
-64 50 -99 -29 -44 -96 -29 -114 25 -14 40 -32 38 -32 -4 0 -39 15 -55 62 -62
50 -9 104 18 124 60 16 32 16 36 0 60 -9 15 -41 42 -71 62 -58 39 -74 66 -54
90 20 24 61 13 84 -23 26 -42 35 -41 35 2 0 55 -52 71 -120 37z"/>
<path d="M3901 443 c-41 -21 -78 -75 -87 -130 -12 -77 50 -163 118 -163 31 0
113 52 128 81 11 20 9 20 -23 -5 -53 -40 -96 -44 -135 -11 -33 28 -59 92 -49
119 5 13 25 16 107 16 55 0 100 2 100 5 0 25 -34 77 -59 89 -38 20 -57 20
-100 -1z m77 -20 c11 -10 23 -28 27 -40 6 -22 4 -23 -69 -23 -85 0 -96 11 -51
55 28 29 65 32 93 8z"/>
<path d="M402 430 c17 -13 43 -64 77 -148 47 -117 51 -132 40 -158 -7 -16 -19
-37 -27 -46 -16 -19 -67 -24 -77 -8 -3 5 -13 10 -21 10 -11 0 -9 -7 8 -30 12
-17 31 -30 44 -30 41 0 70 46 135 217 40 106 72 176 88 190 l24 23 -69 0 c-68
-1 -69 -1 -40 -16 26 -14 28 -19 22 -54 -8 -54 -48 -152 -57 -143 -16 17 -78
185 -72 199 4 11 -6 14 -47 14 l-53 0 25 -20z"/>
</g>
</svg>
