<svg xmlns="http://www.w3.org/2000/svg" version="1.0" viewBox="0 0 200.000000 100.000000" preserveAspectRatio="xMidYMid meet" fill="white" height="134" width="200pt">
    <g transform="translate(0.000000,134.000000) scale(0.100000,-0.100000)" stroke="none">
        <path d="M1438 1074 l3 -235 32 6 c74 15 68 -5 65 213 l-3 197 -50 27 -50 27 3 -235z"/>
        <path d="M799 1194 c-172 -53 -283 -237 -238 -397 10 -37 11 -38 32 -23 88 64 216 106 320 106 64 0 66 1 63 25 -3 26 -12 40 -25 40 -8 0 -41 31 -41 39 0 2 12 6 27 8 21 2 27 9 28 31 0 15 -4 27 -10 27 -7 0 -11 16 -11 35 1 37 5 42 23 24 17 -17 83 0 85 22 0 11 1 24 2 31 1 17 -99 47 -159 47 -27 0 -71 -7 -96 -15z"/>
        <path d="M1126 1097 c-15 -5 -25 -14 -23 -21 7 -18 -12 -58 -23 -51 -6 4 -17 1 -26 -5 -11 -10 -12 -16 -3 -27 9 -11 8 -17 -6 -27 -18 -13 -18 -14 3 -25 13 -7 19 -17 16 -26 -4 -10 5 -20 29 -30 41 -17 49 -26 37 -44 -6 -10 -43 -15 -131 -18 -68 -2 -153 -11 -189 -19 -88 -22 -212 -81 -285 -137 -61 -46 -135 -117 -122 -117 4 0 47 20 95 44 103 51 210 89 336 119 83 20 119 21 426 22 236 0 365 5 435 15 100 14 100 14 50 21 -27 4 -97 7 -155 8 -58 0 -176 11 -263 23 -158 23 -158 23 -155 48 3 22 9 25 46 28 36 3 42 6 42 26 0 13 9 31 20 41 29 26 25 60 -14 103 -39 43 -97 63 -140 49z"/>
        <path d="M1610 718 c-41 -5 -174 -9 -295 -9 -294 0 -440 -18 -613 -76 -74 -25 -234 -92 -220 -93 3 0 48 11 100 25 148 39 268 55 497 65 249 11 340 21 509 56 143 29 187 43 132 42 -19 0 -69 -5 -110 -10z"/>
    </g>
</svg>
